<svg width="1280" height="720" xmlns="http://www.w3.org/2000/svg" xmlns:xlink="http://www.w3.org/1999/xlink" overflow="hidden"><g><path d="M436.5 82.5001 271.045 83.5327 130.896 224.189C130.497 316.185 130.899 410.315 130.5 502.311L266.787 639.233C278.133 639.233 279.612 639.5 290.958 639.5" stroke="#F2F2F2" stroke-width="6.66667" stroke-miterlimit="8" fill="none" fill-rule="evenodd"/><path d="M997.21 639.5 1012.13 638.902 1151.4 499.067C1151.74 406.067 1151.09 315.47 1151.43 222.471L1012.86 82.8682 838.5 82.5001" stroke="#F2F2F2" stroke-width="6.66667" stroke-miterlimit="8" fill="none" fill-rule="evenodd"/><path d="M644.033 239.567 531.5 126.5" stroke="#F2F2F2" stroke-width="6.66667" stroke-miterlimit="8" fill="none" fill-rule="evenodd"/><path d="M0 0 56.5167 56.9528" stroke="#F2F2F2" stroke-width="6.66667" stroke-miterlimit="8" fill="none" fill-rule="evenodd" transform="matrix(-1 0 0 1 745.017 129.5)"/><path d="M0 0 79.1104 79.4624" stroke="#F2F2F2" stroke-width="6.66667" stroke-miterlimit="8" fill="none" fill-rule="evenodd" transform="matrix(-1 0 0 1 653.61 324.5)"/><path d="M0 0 176.32 0.231391" stroke="#F2F2F2" stroke-width="6.66667" stroke-miterlimit="8" fill="none" fill-rule="evenodd" transform="matrix(-1 0 0 1 727.82 82.5001)"/><path d="M0 0 285.8 0.000104987" stroke="#F2F2F2" stroke-width="6.66667" stroke-miterlimit="8" fill="none" fill-rule="evenodd" transform="matrix(-1 0 0 1 785.3 542.5)"/><path d="M0 0 479.702 0.000104987" stroke="#F2F2F2" stroke-width="6.66667" stroke-miterlimit="8" fill="none" fill-rule="evenodd" transform="matrix(-1 0 0 1 881.202 639.5)"/><path d="M0 0 110.6 0.000104987" stroke="#F2F2F2" stroke-width="6.66667" stroke-miterlimit="8" fill="none" fill-rule="evenodd" transform="matrix(-1 0 0 1 702.1 448.5)"/><path d="M0 0 41.7201 41.206" stroke="#F2F2F2" stroke-width="6.66667" stroke-miterlimit="8" fill="none" fill-rule="evenodd" transform="matrix(-1 0 0 1 424.22 554.5)"/><path d="M0 0 41.7201 41.206" stroke="#F2F2F2" stroke-width="6.66667" stroke-miterlimit="8" fill="none" fill-rule="evenodd" transform="matrix(-1 0 0 1 520.22 458.5)"/><path d="M856.5 552.5 899.7 596.1" stroke="#F2F2F2" stroke-width="6.66667" stroke-miterlimit="8" fill="none" fill-rule="evenodd"/><path d="M0 0 0.0265617 42.6" stroke="#F2F2F2" stroke-width="6.66667" stroke-miterlimit="8" fill="none" fill-rule="evenodd" transform="matrix(1 0 0 -1 689.5 226.1)"/></g></svg>